<svg width="1200" height="760" viewBox="0 0 1200 760" fill="none" xmlns="http://www.w3.org/2000/svg">
  <rect width="1200" height="760" fill="#F7F5F2"/>
  <rect x="84" y="76" width="1032" height="608" rx="26" fill="white" stroke="#D9E1E6"/>
  <rect x="148" y="132" width="904" height="496" rx="26" fill="#FAFCFC"/>
  <rect x="198" y="182" width="356" height="34" rx="17" fill="#E9EFF2"/>
  <rect x="198" y="232" width="290" height="20" rx="10" fill="#EDF2F4"/>
  <rect x="198" y="276" width="420" height="286" rx="24" fill="#F0F5F7"/>
  <rect x="654" y="182" width="348" height="380" rx="24" fill="#EEF4F5"/>
  <rect x="704" y="470" width="198" height="46" rx="23" fill="#C66B2A"/>
  <circle cx="408" cy="426" r="88" fill="#DCE8EC"/>
  <path d="M356 430C370 398 394 374 408 356C422 374 446 398 460 430C446 460 428 482 408 498C388 482 370 460 356 430Z" fill="#0F2A3A"/>
  <path d="M730 290H932" stroke="#D5E2E6" stroke-width="14" stroke-linecap="round"/>
  <path d="M730 332H902" stroke="#DEE8EB" stroke-width="12" stroke-linecap="round"/>
  <path d="M730 372H918" stroke="#D5E2E6" stroke-width="14" stroke-linecap="round"/>
  <path d="M730 414H874" stroke="#DEE8EB" stroke-width="12" stroke-linecap="round"/>
  <text x="198" y="622" fill="#0F2A3A" font-size="36" font-family="Georgia, serif">Kaluna Therapies</text>
  <text x="198" y="658" fill="#164B57" font-size="22" font-family="Arial, sans-serif">Luxury spa website design and premium service presentation</text>
</svg>
